<svg id="visual" viewBox="0 0 900 600" width="900" height="600" xmlns="http://www.w3.org/2000/svg" xmlns:xlink="http://www.w3.org/1999/xlink" version="1.1"><path d="M0 576L13.7 574.3C27.3 572.7 54.7 569.3 82 570.7C109.3 572 136.7 578 163.8 579.2C191 580.3 218 576.7 245.2 571.7C272.3 566.7 299.7 560.3 327 561.3C354.3 562.3 381.7 570.7 409 575.3C436.3 580 463.7 581 491 579.3C518.3 577.7 545.7 573.3 573 569.3C600.3 565.3 627.7 561.7 654.8 560.7C682 559.7 709 561.3 736.2 562.8C763.3 564.3 790.7 565.7 818 564.3C845.3 563 872.7 559 886.3 557L900 555L900 601L886.3 601C872.7 601 845.3 601 818 601C790.7 601 763.3 601 736.2 601C709 601 682 601 654.8 601C627.7 601 600.3 601 573 601C545.7 601 518.3 601 491 601C463.7 601 436.3 601 409 601C381.7 601 354.3 601 327 601C299.7 601 272.3 601 245.2 601C218 601 191 601 163.8 601C136.7 601 109.3 601 82 601C54.7 601 27.3 601 13.7 601L0 601Z" fill="#5be78a" stroke-linecap="round" stroke-linejoin="miter"></path></svg>