<svg id="visual" viewBox="0 0 900 600" width="900" height="600" xmlns="http://www.w3.org/2000/svg" xmlns:xlink="http://www.w3.org/1999/xlink" version="1.1"><path d="M0 23L18.8 23.5C37.7 24 75.3 25 112.8 23.3C150.3 21.7 187.7 17.3 225.2 20.3C262.7 23.3 300.3 33.7 337.8 37C375.3 40.3 412.7 36.7 450.2 33.7C487.7 30.7 525.3 28.3 562.8 29.2C600.3 30 637.7 34 675.2 36.8C712.7 39.7 750.3 41.3 787.8 37.8C825.3 34.3 862.7 25.7 881.3 21.3L900 17L900 0L881.3 0C862.7 0 825.3 0 787.8 0C750.3 0 712.7 0 675.2 0C637.7 0 600.3 0 562.8 0C525.3 0 487.7 0 450.2 0C412.7 0 375.3 0 337.8 0C300.3 0 262.7 0 225.2 0C187.7 0 150.3 0 112.8 0C75.3 0 37.7 0 18.8 0L0 0Z" fill="#5be78a" stroke-linecap="round" stroke-linejoin="miter"></path></svg>